<?xml version="1.0" standalone="no"?>
<!DOCTYPE svg PUBLIC "-//W3C//DTD SVG 20010904//EN" "http://www.w3.org/TR/2001/REC-SVG-20010904/DTD/svg10.dtd">
<svg version="1.0" xmlns="http://www.w3.org/2000/svg" width="1024.000000pt" height="1024.000000pt"
    viewBox="0 0 1024.000000 1024.000000" preserveAspectRatio="xMidYMid meet">

    <g transform="translate(0.000000,1024.000000) scale(0.100000,-0.100000)" fill="currentColor" stroke="none">
        <path d="M5061 7937 c-39 -20 -62 -59 -68 -120 -5 -53 -7 -56 -23 -42 -9 8
-35 15 -58 15 -32 0 -45 -6 -61 -26 -42 -53 -20 -118 73 -221 l56 -61 0 -112
0 -111 -32 18 c-31 18 -133 115 -195 184 -45 53 -108 59 -182 19 -36 -19 -61
-70 -61 -126 0 -71 39 -145 121 -227 103 -103 204 -140 317 -115 l32 8 0 -169
0 -168 -84 83 c-62 62 -90 84 -109 84 -32 0 -67 -35 -67 -67 0 -13 -4 -23 -9
-23 -16 0 -28 24 -35 69 -9 60 -31 97 -63 109 -35 12 -64 1 -91 -33 l-21 -26
-34 63 c-19 35 -50 94 -68 133 -42 85 -70 107 -137 107 -88 0 -138 -47 -149
-140 -17 -149 104 -368 249 -447 44 -24 68 -30 140 -33 l87 -4 6 -39 c22 -131
159 -158 368 -74 16 7 17 -7 17 -198 l0 -205 -88 89 c-66 68 -94 89 -114 89
-32 0 -65 -38 -74 -86 -12 -62 -44 -27 -44 48 0 57 -28 110 -63 123 -37 12
-56 0 -85 -56 -12 -24 -27 -45 -32 -47 -6 -2 -10 25 -10 65 0 60 -3 72 -24 92
-38 36 -75 26 -106 -29 l-25 -45 -5 71 c-6 89 -26 116 -79 112 -31 -3 -39 -9
-56 -45 -11 -24 -22 -43 -26 -43 -4 0 -9 36 -11 80 -3 58 -10 85 -23 100 -21
24 -67 26 -85 5 -7 -8 -16 -15 -21 -15 -4 0 -20 38 -36 85 -15 47 -40 101 -56
120 -71 86 -213 62 -247 -42 -18 -52 -8 -196 19 -264 38 -98 98 -173 155 -192
4 -1 2 -21 -4 -44 -11 -36 -11 -46 4 -67 27 -43 69 -57 199 -67 172 -13 171
-13 163 -54 -3 -19 -9 -51 -12 -70 -6 -29 -2 -39 22 -63 42 -41 92 -46 216
-22 57 11 106 20 109 20 4 0 9 -23 11 -50 8 -79 69 -130 156 -130 46 0 88 14
192 63 l75 35 3 -119 c1 -65 1 -173 0 -239 l-3 -119 -65 81 c-86 107 -135 148
-176 148 -43 0 -54 -17 -66 -105 -15 -105 -33 -99 -62 19 -29 117 -68 166
-132 166 -39 0 -74 -38 -74 -80 0 -55 -12 -91 -29 -88 -13 3 -17 22 -22 102
-5 92 -8 101 -33 123 -35 30 -81 30 -100 1 -8 -13 -18 -44 -21 -70 -7 -46 -17
-59 -30 -38 -4 6 -10 47 -15 91 -6 66 -12 86 -31 104 -59 58 -143 33 -155 -46
-4 -21 -10 -39 -15 -39 -17 0 -37 46 -53 120 -20 91 -45 136 -80 142 -28 6
-74 -13 -93 -38 -14 -19 -12 -22 -93 140 -74 150 -101 176 -179 176 -55 0
-103 -27 -131 -72 -57 -94 12 -333 134 -465 47 -51 65 -63 107 -73 58 -14 66
-25 44 -66 -18 -35 -18 -45 -4 -77 24 -53 97 -68 236 -48 28 4 61 4 72 -1 l22
-8 -26 -49 c-33 -65 -33 -104 1 -130 40 -32 97 -35 213 -11 57 11 105 19 107
17 2 -1 -3 -25 -11 -51 -20 -66 -6 -96 54 -115 42 -13 52 -12 164 16 l119 30
-7 -26 c-24 -95 -12 -131 53 -158 65 -27 145 -7 295 74 44 23 83 43 86 43 3 0
5 -117 3 -260 l-3 -261 -75 88 c-84 98 -118 124 -165 125 -50 2 -69 -29 -69
-113 0 -112 -26 -103 -64 24 -40 132 -102 188 -175 157 -35 -14 -51 -47 -51
-105 0 -25 -4 -45 -9 -45 -18 0 -32 30 -56 125 -29 114 -41 136 -88 159 -46
21 -79 20 -108 -3 -20 -16 -25 -31 -29 -90 -7 -98 -24 -82 -67 65 -40 138 -59
164 -125 171 -40 5 -47 2 -66 -22 -16 -21 -22 -42 -22 -81 0 -92 -41 -57 -60
51 -22 125 -53 173 -122 190 -33 8 -68 -23 -68 -62 0 -16 -5 -35 -10 -43 -19
-28 -40 17 -40 88 0 77 -21 126 -60 142 -33 14 -63 2 -81 -32 -11 -21 -12 -21
-26 -2 -8 10 -37 67 -65 127 -41 85 -59 112 -86 129 -75 46 -181 17 -217 -59
-37 -78 -13 -227 57 -353 65 -116 122 -166 221 -191 26 -6 49 -15 52 -19 2 -4
-7 -22 -20 -40 -33 -45 -32 -82 4 -122 l29 -33 134 -1 c187 -1 209 -12 148
-74 -41 -41 -42 -100 -4 -135 33 -30 102 -33 218 -9 88 18 125 16 140 -8 8
-14 4 -24 -22 -51 -41 -43 -45 -101 -8 -144 23 -26 30 -28 93 -27 43 1 119 15
206 38 151 39 173 42 200 22 21 -16 22 -35 2 -72 -19 -37 -19 -58 1 -99 45
-95 231 -84 449 25 55 28 102 50 105 50 3 0 4 -117 2 -259 l-3 -259 -27 25
c-29 27 -259 171 -305 191 -15 7 -43 12 -62 12 -47 0 -65 -29 -65 -103 0 -49
-3 -58 -17 -55 -9 2 -25 25 -36 53 -55 144 -64 160 -97 183 -27 18 -43 22 -70
17 -59 -11 -71 -32 -77 -129 -3 -47 -10 -86 -14 -86 -14 0 -35 50 -53 125 -38
153 -71 195 -156 195 -30 0 -47 -6 -65 -25 -22 -21 -25 -33 -25 -95 0 -61 -2
-70 -18 -70 -18 0 -42 37 -42 64 0 8 -9 44 -21 82 -27 87 -62 124 -118 124
-49 0 -77 -24 -87 -74 -6 -37 -27 -48 -38 -20 -4 9 -13 51 -22 92 -25 120 -56
162 -120 162 -34 0 -57 -20 -70 -62 l-9 -27 -54 64 c-30 36 -79 102 -110 147
-73 106 -96 123 -170 123 -128 -1 -184 -111 -132 -259 38 -107 174 -276 259
-320 32 -16 41 -39 22 -51 -5 -3 -10 -21 -10 -40 0 -84 28 -97 234 -105 139
-5 160 -8 172 -25 19 -26 18 -33 -11 -67 -31 -37 -34 -99 -6 -127 30 -30 84
-35 240 -23 131 11 146 11 163 -4 24 -22 23 -56 -2 -79 -32 -29 -28 -104 8
-140 25 -25 31 -27 92 -23 46 4 100 19 182 52 65 25 130 46 146 46 44 0 55
-20 37 -63 -29 -70 -15 -120 40 -143 88 -36 238 8 442 132 39 24 73 44 75 44
2 0 2 -83 0 -185 l-3 -185 -64 0 c-159 0 -548 -41 -825 -86 -359 -59 -934
-214 -903 -244 16 -17 181 -83 328 -131 739 -245 1631 -308 2455 -173 380 62
787 174 1009 277 l74 34 -79 31 c-372 142 -936 251 -1464 282 -102 6 -204 13
-227 16 l-43 5 0 181 0 180 33 -21 c156 -103 291 -160 397 -167 73 -6 101 5
134 49 18 25 19 31 7 70 -24 82 -24 85 -2 96 16 9 33 7 78 -10 232 -85 248
-90 302 -86 44 3 59 9 78 31 30 36 30 83 -2 130 -31 46 -31 61 -2 80 19 12 44
13 168 3 174 -13 219 -5 245 44 18 35 7 84 -26 114 -11 10 -20 26 -20 35 0 36
27 43 194 50 89 4 172 13 184 19 49 26 65 82 36 126 -15 23 -14 24 44 64 79
53 143 127 197 225 55 101 72 172 55 230 -23 79 -93 124 -171 112 -60 -10 -75
-23 -149 -126 -37 -52 -87 -119 -110 -149 l-43 -54 -13 31 c-20 49 -73 66
-127 41 -31 -14 -44 -43 -67 -148 -10 -46 -25 -90 -33 -98 -12 -13 -16 -8 -26
31 -6 26 -19 50 -30 56 -25 13 -87 13 -112 0 -27 -15 -55 -75 -80 -174 -19
-77 -24 -87 -43 -84 -19 3 -21 10 -22 77 -2 89 -19 111 -88 111 -86 0 -122
-46 -157 -198 -34 -144 -69 -163 -69 -36 0 87 -8 107 -49 124 -69 28 -127 -17
-167 -129 -50 -137 -74 -156 -74 -58 0 49 -4 68 -18 80 -28 26 -85 21 -154
-14 -84 -42 -226 -135 -265 -172 l-33 -31 0 267 c0 252 1 267 18 258 9 -5 44
-26 77 -45 116 -71 302 -111 393 -87 74 20 102 98 65 177 -17 35 -17 36 2 50
26 19 28 19 199 -22 228 -54 295 -49 326 25 16 39 7 72 -30 115 -31 34 -32 59
-4 70 9 3 56 -3 107 -14 108 -24 187 -26 226 -5 54 27 57 88 6 144 -19 21 -35
44 -35 50 0 22 47 30 142 24 116 -7 158 0 198 33 37 32 41 81 9 123 -12 16
-18 34 -15 40 4 6 29 17 55 25 108 32 163 82 221 202 108 223 90 376 -49 414
-45 12 -106 -3 -140 -33 -13 -12 -43 -63 -67 -114 -24 -51 -51 -104 -60 -118
l-17 -27 -14 26 c-11 21 -21 26 -53 26 -66 0 -90 -47 -90 -174 0 -39 -13 -66
-32 -66 -4 0 -8 11 -8 24 0 12 -5 37 -11 55 -10 29 -14 31 -58 31 -74 0 -100
-35 -125 -169 -23 -123 -49 -148 -59 -55 -8 78 -28 97 -91 91 -74 -7 -97 -37
-125 -167 -21 -99 -43 -146 -62 -134 -5 3 -6 23 -3 44 17 104 -50 157 -141
114 -47 -22 -62 -49 -89 -165 -13 -56 -29 -106 -34 -111 -19 -19 -32 3 -32 53
0 87 -64 124 -137 79 -42 -25 -49 -38 -87 -151 -21 -63 -36 -94 -46 -94 -12 0
-14 12 -12 58 1 33 -4 72 -12 92 -14 33 -18 35 -61 35 -40 0 -50 -5 -93 -47
-26 -27 -71 -75 -100 -108 l-52 -60 0 268 0 268 28 -19 c15 -11 69 -41 119
-67 81 -42 101 -49 155 -49 73 -1 125 23 147 68 11 24 11 34 -3 69 -9 23 -13
44 -8 48 4 4 43 -4 86 -17 133 -40 237 -27 252 31 3 14 -1 43 -10 66 -9 23
-15 43 -13 46 3 2 52 -6 109 -18 113 -24 152 -22 206 11 28 17 32 25 32 60 0
27 -8 54 -25 78 -24 35 -24 38 -8 50 11 8 30 11 48 7 74 -15 185 -17 214 -5
56 23 77 83 45 128 -23 34 -13 46 53 65 76 21 140 86 190 194 44 96 78 229 69
274 -15 83 -79 139 -156 139 -80 0 -103 -23 -175 -174 -35 -74 -68 -137 -74
-141 -6 -3 -23 3 -37 14 -69 54 -133 10 -154 -106 -22 -116 -56 -157 -71 -84
-10 47 -30 63 -79 63 -73 -1 -110 -41 -110 -120 0 -91 -23 -145 -35 -84 -17
83 -26 102 -50 108 -69 17 -105 -29 -105 -135 0 -69 -13 -111 -35 -111 -11 0
-15 12 -15 49 0 53 -14 101 -33 113 -22 14 -91 8 -113 -10 -25 -19 -48 -63
-58 -107 -20 -89 -38 -135 -51 -135 -11 0 -15 13 -16 48 0 68 -19 115 -50 126
-50 17 -75 0 -171 -115 l-93 -111 -3 121 c-1 67 -1 175 0 241 l3 121 95 -46
c112 -55 171 -65 234 -41 69 27 96 59 96 117 0 27 4 49 9 49 5 0 40 -6 78 -14
71 -15 111 -19 176 -17 29 1 46 9 69 31 32 32 33 52 12 142 -8 33 -4 35 162
47 67 6 138 17 158 25 47 19 70 68 56 117 -5 18 -9 34 -7 35 1 1 14 8 28 15
40 21 95 93 118 153 77 206 35 371 -97 384 -89 8 -130 -29 -176 -158 -15 -41
-29 -81 -31 -88 -4 -11 -9 -10 -27 2 -30 21 -71 20 -91 -2 -12 -14 -17 -38
-17 -88 0 -92 -12 -109 -39 -57 -30 60 -71 70 -111 28 -18 -19 -25 -41 -30
-92 -6 -66 -7 -67 -19 -38 -27 65 -68 82 -111 47 -18 -15 -23 -31 -28 -90 -2
-40 -7 -72 -11 -72 -3 0 -14 21 -25 46 -23 55 -52 72 -92 53 -33 -16 -50 -57
-59 -141 -5 -47 -10 -58 -24 -58 -14 0 -20 11 -25 40 -8 48 -36 80 -72 80 -20
0 -48 -21 -112 -85 -46 -47 -86 -85 -88 -85 -2 0 -4 90 -4 199 l0 200 73 -26
c151 -54 294 -22 312 71 13 65 10 63 93 68 150 9 269 97 343 253 98 208 57
365 -96 365 -73 0 -106 -24 -145 -107 -50 -107 -70 -147 -86 -167 -14 -19 -15
-19 -42 7 -34 33 -81 36 -107 7 -10 -11 -26 -51 -35 -87 -9 -37 -21 -68 -27
-70 -6 -2 -16 12 -23 32 -12 36 -35 55 -66 55 -9 0 -56 -39 -105 -87 l-89 -87
0 173 0 172 23 -8 c12 -4 49 -8 82 -8 121 1 273 107 338 236 39 79 43 117 19
172 -27 61 -69 87 -142 87 l-54 0 -91 -94 c-82 -86 -152 -146 -168 -146 -4 0
-7 50 -7 110 l0 111 59 63 c70 75 91 112 91 161 0 68 -77 115 -128 78 l-27
-20 -2 49 c-2 27 -10 62 -18 78 -27 53 -100 75 -154 47z" />
    </g>
</svg>